<svg id="Objects" xmlns="http://www.w3.org/2000/svg" viewBox="0 0 324.71 59.84"><defs><style>.cls-1,.cls-2{fill:#39b54a;}.cls-2{isolation:isolate;font-size:54.2px;font-family:Asap-SemiBold, Asap;font-weight:600;}</style></defs><title>RetailerCode</title><path class="cls-1" d="M135.68,371.91" transform="translate(-78.51 -387.7)"/><text class="cls-2" transform="translate(59.66 46.07)">RetailCode</text><path class="cls-1" d="M80.56,423.94a1.14,1.14,0,0,0,.22.22C82.42,425.65,94.1,419,94.1,419c5.08-2.91,7.62-4.37,9.44-5.26,7.64-3.75,11.32-4,12.88-4.22a35.63,35.63,0,0,1,7-.19,50.73,50.73,0,0,1,7.87,1.57c0-.22-.14-2.1-.07-2.83a.75.75,0,0,0-.18-.53,1.6,1.6,0,0,0-.3-.21c-8.75-4.36-19.92-.69-19.92-.69-.9.29-4.31,1.3-5.78,1.9a50.58,50.58,0,0,0-5.46,2.63c-4.09,2.24-6.76,3.92-8,4.66a37.6,37.6,0,0,1-13,4.51l.07.14C79.14,421.51,79.92,422.89,80.56,423.94Z" transform="translate(-78.51 -387.7)"/><path class="cls-1" d="M80.56,414.19a1.14,1.14,0,0,0,.22.22c1.8,1.64,10.35-3.47,13.32-5.19,5.53-3.21,11.06-6.42,16.71-8a35,35,0,0,1,14.68-.76c-.18.69-.36,1.45-.51,2.06l.24-.21h0a15.31,15.31,0,0,1,6.92-3.22.77.77,0,0,0,.63-.88.76.76,0,0,0-.33-.52,37.4,37.4,0,0,0-7.08-3.46.76.76,0,0,0-1,.43.75.75,0,0,0,.13.78c.06.06.11.13.16.19l.59.73a39,39,0,0,0-16.61,1.1c-.83.26-2.1.7-3.62,1.3-6.42,2.55-9.7,5.19-13.49,7.29a41.82,41.82,0,0,1-13,4.51l.07.14C79.14,411.76,79.92,413.14,80.56,414.19Z" transform="translate(-78.51 -387.7)"/><path class="cls-1" d="M132.44,417.31a38,38,0,0,0-7.08-3.47.76.76,0,0,0-1,.44.75.75,0,0,0,.13.78,1.46,1.46,0,0,1,.16.19l.19.23C117,414,108.64,417,108.64,417c-.9.28-2.15.7-3.62,1.3a50.58,50.58,0,0,0-5.46,2.63c-4.09,2.24-6.76,3.92-8,4.66a37.6,37.6,0,0,1-13,4.51l.07.14c.56,1.06,1.34,2.44,2,3.49a1.14,1.14,0,0,0,.22.22c1.64,1.49,13.32-5.19,13.32-5.19,5.08-2.91,7.62-4.37,9.44-5.26,7.64-3.75,11.32-4.29,12.89-4.46a30.9,30.9,0,0,1,7,.05c.94.12,1.72.26,2.26.37-.22.84-.48,1.91-.68,2.72l.24-.2h0a15.42,15.42,0,0,1,6.92-3.23.77.77,0,0,0,.3-1.39Z" transform="translate(-78.51 -387.7)"/></svg>